<?xml version="1.0" standalone="no"?>
<!DOCTYPE svg PUBLIC "-//W3C//DTD SVG 20010904//EN"
 "http://www.w3.org/TR/2001/REC-SVG-20010904/DTD/svg10.dtd">
<svg version="1.0" xmlns="http://www.w3.org/2000/svg"
 width="500.000000pt" height="500.000000pt" viewBox="0 0 500.000000 500.000000"
 preserveAspectRatio="xMidYMid meet">

<g transform="translate(0.000000,500.000000) scale(0.100000,-0.100000)"
fill="#000000" stroke="none">
<path d="M2186 4475 c-100 -16 -288 -65 -373 -97 -642 -237 -1127 -795 -1268
-1458 -242 -1135 537 -2244 1683 -2395 227 -30 512 -16 735 36 415 97 814 349
1090 689 582 716 582 1778 0 2500 -287 356 -682 600 -1143 706 -105 24 -137
26 -375 30 -192 2 -283 -1 -349 -11z m-655 -1762 c7 -17 9 -67 6 -130 l-6
-101 34 -6 c50 -10 52 -24 2 -19 l-43 5 -19 -83 c-11 -46 -20 -86 -20 -89 0
-3 205 -7 455 -10 l455 -5 -565 -1 c-311 0 -519 2 -463 3 l101 4 21 88 c12 49
21 91 21 95 0 8 -158 6 -189 -3 -19 -5 -29 -21 -48 -76 -32 -96 -33 -98 -38
-93 -3 2 6 38 20 78 14 40 25 77 25 82 0 4 -33 9 -72 9 -55 1 -66 3 -43 9 17
4 53 8 80 9 l50 2 42 88 c51 106 109 171 153 171 24 0 33 -6 41 -27z m1430 17
c43 -23 5 -116 -64 -159 -39 -24 -147 -54 -179 -49 -19 3 -25 -4 -37 -49 -47
-178 110 -229 194 -62 50 97 57 65 16 -66 -22 -70 -28 -52 -6 21 l14 49 -22
-30 c-56 -77 -95 -98 -155 -83 -55 15 -75 87 -51 184 11 42 10 46 -10 61 -36
25 -44 59 -26 119 9 30 20 54 25 54 5 0 2 -16 -6 -35 -19 -46 -18 -94 3 -117
23 -26 28 -23 56 25 30 50 90 109 132 131 35 18 88 21 116 6z m-1256 -121
c-29 -107 -31 -129 -13 -111 7 7 21 12 31 12 16 0 18 -5 13 -26 -7 -26 -6 -26
31 -20 86 15 88 18 119 132 15 58 32 107 37 111 5 3 6 -4 2 -18 -25 -79 -62
-229 -57 -229 4 0 25 12 47 25 52 32 64 31 72 -5 4 -21 11 -30 25 -30 25 0 95
36 101 52 3 7 6 0 6 -15 1 -37 23 -43 72 -21 51 23 48 15 99 213 6 23 13 41
16 38 4 -4 -23 -125 -43 -192 -5 -16 -3 -18 8 -9 21 17 79 28 79 15 0 -6 -13
-11 -29 -11 -16 0 -39 -9 -52 -20 -24 -20 -24 -20 -4 -36 24 -19 98 -13 145
11 18 9 34 14 36 12 3 -2 -12 -13 -33 -23 -26 -13 -59 -19 -106 -19 l-67 0 -6
-33 c-4 -18 -11 -35 -17 -39 -6 -4 -8 0 -4 10 3 8 9 32 13 52 l7 37 -31 -16
c-38 -20 -76 -21 -91 -2 -11 13 -17 13 -46 0 -53 -22 -84 -18 -91 11 -8 31
-19 31 -69 0 -47 -29 -55 -30 -55 -9 0 11 -5 14 -17 9 -10 -3 -40 -9 -68 -12
-75 -7 -102 -21 -114 -56 -22 -61 -19 -19 6 73 58 225 67 254 70 244 2 -6 -8
-53 -22 -105z m1305 -15 c-16 -60 -30 -115 -30 -122 0 -8 17 -3 50 14 52 27
70 25 70 -7 0 -34 30 -34 96 1 61 32 84 33 84 4 0 -22 70 -10 132 22 49 24 88
31 88 15 0 -5 -9 -7 -20 -4 -19 5 -70 -20 -70 -35 0 -4 8 -12 18 -19 15 -9 31
-7 73 8 30 10 66 18 81 19 23 0 28 6 41 53 8 28 23 78 32 111 9 32 18 56 20
54 3 -2 -9 -53 -25 -114 -16 -60 -30 -115 -30 -122 0 -8 17 -3 50 14 52 27 70
25 70 -7 0 -30 28 -34 76 -10 59 28 69 26 19 -4 -53 -33 -92 -33 -105 0 -12
31 -25 31 -75 0 -49 -30 -58 -31 -50 -5 8 25 -8 26 -87 4 -53 -15 -57 -19 -52
-40 5 -19 0 -26 -29 -40 -19 -9 -43 -14 -53 -10 -15 6 -14 11 14 39 30 31 31
33 13 48 -15 13 -27 14 -72 7 -30 -6 -62 -14 -71 -19 -29 -15 -48 -10 -48 11
0 20 0 20 -32 0 -47 -28 -86 -26 -98 5 -12 31 -23 31 -77 -1 -25 -14 -47 -24
-49 -21 -2 2 7 48 21 103 31 119 46 167 51 162 2 -3 -10 -53 -26 -114z m925
-314 c4 -7 -170 -10 -514 -10 -341 0 -521 3 -521 10 0 7 178 10 514 10 333 0
517 -4 521 -10z m-2613 -172 c-18 -18 -15 -28 11 -38 15 -6 17 -9 6 -9 -9 -1
-22 6 -29 14 -14 17 -7 45 12 45 9 0 9 -3 0 -12z m139 3 c-17 -11 -7 -41 13
-41 21 0 30 19 16 35 -7 9 -8 15 -2 15 16 0 23 -31 11 -46 -15 -19 -48 -18
-55 1 -8 20 2 45 18 45 10 0 9 -3 -1 -9z m153 -7 c3 -8 2 -12 -3 -9 -5 3 -12
-5 -14 -17 -3 -17 -5 -14 -6 10 -1 33 12 43 23 16z m45 -16 c-1 -18 -3 -25 -6
-15 -4 15 -7 16 -21 5 -12 -10 -12 -7 2 15 23 35 26 34 25 -5z m118 2 c9 0 13
6 9 15 -3 8 -1 15 4 15 17 0 11 -30 -7 -37 -10 -4 -21 -11 -25 -17 -4 -6 -7 5
-7 24 1 19 3 27 6 18 2 -10 11 -18 20 -18z m144 -17 c10 3 19 1 19 -5 0 -5
-10 -8 -22 -6 -17 2 -23 10 -24 28 -1 24 -1 24 3 2 3 -18 9 -23 24 -19z m26
25 c-3 -8 -6 -5 -6 6 -1 11 2 17 5 13 3 -3 4 -12 1 -19z m113 -8 c0 -16 -2
-30 -4 -30 -2 0 -6 14 -8 30 -3 17 -1 30 4 30 4 0 8 -13 8 -30z m130 7 c12 -4
11 -6 -2 -6 -26 -1 -22 -19 5 -24 19 -4 18 -4 -5 -6 -25 -1 -28 2 -28 32 0 17
4 27 8 21 4 -6 14 -14 22 -17z m114 8 c-4 -9 0 -15 9 -15 19 0 31 16 17 23 -7
4 -6 5 1 4 6 -2 10 -6 10 -10 -1 -4 -1 -17 -2 -29 0 -13 -3 -17 -6 -10 -2 6
-11 12 -18 12 -7 0 -16 -6 -18 -12 -3 -7 -6 2 -6 20 -1 17 3 32 9 32 5 0 7 -7
4 -15z m141 6 c-3 -5 4 -13 15 -16 27 -9 20 -29 -11 -32 l-24 -2 25 8 25 7
-22 12 c-24 13 -31 32 -12 32 5 0 8 -4 4 -9z m255 -12 c6 -11 9 -25 7 -32 -3
-7 -8 0 -12 15 -4 16 -11 25 -16 22 -5 -3 -9 0 -9 5 0 18 19 12 30 -10z m127
-9 c9 0 13 6 9 15 -3 8 -1 15 4 15 5 0 8 -13 7 -29 -2 -23 -5 -27 -15 -18 -10
8 -16 7 -23 -4 -6 -10 -8 -4 -8 21 1 19 3 27 6 18 2 -10 11 -18 20 -18z m132
2 c-15 -6 -10 -20 9 -25 13 -4 11 -5 -5 -6 -19 -1 -23 4 -23 29 0 26 2 29 14
18 8 -7 10 -14 5 -16z m218 -19 c-3 -10 -5 -2 -5 17 0 19 2 27 5 18 2 -10 2
-26 0 -35z m162 21 c6 -15 10 -29 7 -31 -2 -2 -7 5 -11 16 -8 27 -21 27 -28
-1 -4 -12 -9 -20 -12 -16 -7 7 15 58 25 58 4 0 12 -12 19 -26z m106 17 c-3 -5
4 -13 15 -16 25 -8 21 -29 -6 -32 -18 -3 -18 -2 1 6 19 8 19 8 -3 20 -19 10
-23 31 -6 31 3 0 3 -4 -1 -9z m142 -38 c-3 -10 -5 -2 -5 17 0 19 2 27 5 18 2
-10 2 -26 0 -35z m-926 -6 c-10 -9 -11 -8 -5 6 3 10 9 15 12 12 3 -3 0 -11 -7
-18z m-1354 -97 c9 0 13 6 9 15 -3 8 -1 15 4 15 17 0 11 -30 -7 -37 -10 -4
-21 -11 -25 -17 -4 -6 -7 5 -7 24 1 19 3 27 6 18 2 -10 11 -18 20 -18z m140 0
c9 0 13 6 9 15 -3 8 -1 15 4 15 5 0 8 -13 7 -29 -2 -23 -5 -27 -15 -18 -10 8
-16 7 -23 -4 -6 -10 -8 -4 -8 21 1 19 3 27 6 18 2 -10 11 -18 20 -18z m123 15
c-14 -16 -5 -35 16 -35 20 0 30 30 13 42 -12 8 -11 9 1 5 20 -5 19 -37 -2 -51
-14 -8 -21 -7 -34 6 -17 17 -13 48 7 48 8 0 8 -4 -1 -15z m150 0 c-6 -8 -9
-19 -5 -25 9 -14 32 -13 38 3 3 7 6 5 6 -5 1 -22 -32 -24 -49 -3 -14 16 -7 45
11 45 8 0 8 -4 -1 -15z m157 -15 c9 0 13 6 9 15 -3 8 -1 15 4 15 5 0 8 -13 7
-29 -2 -23 -5 -27 -15 -18 -10 8 -16 7 -23 -4 -6 -10 -8 -4 -8 21 1 19 3 27 6
18 2 -10 11 -18 20 -18z m152 4 c6 -15 10 -29 7 -31 -2 -2 -7 5 -11 16 -8 27
-21 27 -28 -1 -4 -12 -9 -20 -12 -16 -7 7 15 58 25 58 4 0 12 -12 19 -26z
m112 -15 c-9 -23 -10 -22 -10 11 -1 23 2 31 9 24 7 -7 7 -19 1 -35z m49 34
c-1 -14 -30 -47 -36 -41 -3 4 3 15 13 26 21 23 23 25 23 15z m111 -34 c-9 -23
-10 -22 -10 11 -1 23 2 31 9 24 7 -7 7 -19 1 -35z m49 34 c-1 -14 -30 -47 -36
-41 -3 4 3 15 13 26 21 23 23 25 23 15z m105 -3 c-3 -5 2 -11 12 -11 17 -1 17
-2 1 -6 -25 -6 -22 -21 5 -26 19 -4 18 -4 -5 -6 -25 -1 -28 3 -28 29 0 17 5
30 11 30 5 0 7 -4 4 -10z m152 -20 c9 0 13 6 9 15 -3 8 -1 15 4 15 5 0 8 -13
7 -29 -2 -23 -5 -27 -15 -18 -10 8 -16 7 -23 -4 -6 -10 -8 -4 -8 21 1 19 3 27
6 18 2 -10 11 -18 20 -18z m118 21 c-3 -5 4 -13 15 -16 25 -8 21 -29 -6 -32
-18 -3 -18 -2 1 6 19 8 19 8 -3 20 -19 10 -23 31 -6 31 3 0 3 -4 -1 -9z m248
-5 c12 10 16 12 10 4 -10 -11 -9 -18 5 -34 17 -21 17 -21 -5 -3 -20 18 -22 18
-32 0 -9 -15 -10 -12 -10 17 1 19 3 27 6 17 5 -18 6 -18 26 -1z m137 -9 c12
-4 11 -6 -2 -6 -26 -1 -22 -19 5 -24 19 -4 18 -4 -5 -6 -25 -1 -28 2 -28 32 0
17 4 27 8 21 4 -6 14 -14 22 -17z m115 13 c-3 -5 2 -11 12 -11 17 -1 17 -2 1
-6 -25 -6 -22 -21 5 -26 19 -4 18 -4 -5 -6 -25 -1 -28 3 -28 29 0 17 5 30 11
30 5 0 7 -4 4 -10z m152 -20 c9 0 13 6 9 15 -3 8 -1 15 4 15 17 0 11 -30 -7
-37 -10 -4 -21 -11 -25 -17 -4 -6 -7 5 -7 24 1 19 3 27 6 18 2 -10 11 -18 20
-18z m210 -17 c-3 -10 -5 -2 -5 17 0 19 2 27 5 18 2 -10 2 -26 0 -35z m123 17
c0 -16 -2 -30 -4 -30 -2 0 -6 14 -8 30 -3 17 -1 30 4 30 4 0 8 -13 8 -30z
m-1486 -105 c3 -8 1 -15 -4 -15 -6 0 -10 7 -10 15 0 8 2 15 4 15 2 0 6 -7 10
-15z m144 -38 c12 -3 10 -5 -5 -6 -20 -1 -23 4 -22 32 2 29 2 29 6 5 2 -15 12
-29 21 -31z m113 44 c-17 -11 -7 -41 13 -41 21 0 30 19 16 35 -7 9 -8 15 -2
15 16 0 23 -31 11 -46 -15 -19 -48 -18 -55 1 -8 20 2 45 18 45 10 0 9 -3 -1
-9z m163 -13 c7 21 26 22 26 1 0 -6 -4 -8 -9 -4 -5 3 -13 -4 -16 -16 -8 -24
-20 -16 -29 21 l-7 25 14 -24 15 -24 6 21z m-394 -23 c0 -9 -9 -15 -22 -14
-17 1 -19 2 -5 6 9 2 17 9 17 14 0 5 2 9 5 9 3 0 5 -7 5 -15z m432 -7 c-7 -7
-12 -8 -12 -2 0 14 12 26 19 19 2 -3 -1 -11 -7 -17z"/>
<path d="M1426 2687 c-35 -35 -116 -177 -116 -200 0 -11 198 -8 204 2 4 5 9
49 12 98 10 149 -23 181 -100 100z"/>
<path d="M2843 2709 c-48 -24 -94 -71 -123 -129 l-20 -40 44 0 c88 0 181 50
215 117 15 29 14 39 -5 57 -21 22 -61 20 -111 -5z"/>
<path d="M1691 2486 c-9 -10 -8 -15 3 -19 16 -7 26 1 26 20 0 17 -14 17 -29
-1z"/>
<path d="M3245 2480 c4 -6 11 -8 16 -5 14 9 11 15 -7 15 -8 0 -12 -5 -9 -10z"/>
<path d="M3230 2460 c0 -5 5 -10 11 -10 5 0 7 5 4 10 -3 6 -8 10 -11 10 -2 0
-4 -4 -4 -10z"/>
<path d="M3409 2411 c-13 -11 -20 -23 -16 -27 10 -10 60 17 59 31 -1 17 -19
16 -43 -4z"/>
</g>
</svg>
